HIERARCHY
ROOT Hips
{
  OFFSET 0.000000 95.000000 0.000000
  CHANNELS 6 Xposition Yposition Zposition Zrotation Xrotation Yrotation
  JOINT Spine
  {
    OFFSET 0.000000 10.000000 0.000000
    CHANNELS 3 Zrotation Xrotation Yrotation
    JOINT Spine1
    {
      OFFSET 0.000000 12.000000 0.000000
      CHANNELS 3 Zrotation Xrotation Yrotation
      JOINT Spine2
      {
        OFFSET 0.000000 12.000000 0.000000
        CHANNELS 3 Zrotation Xrotation Yrotation
        JOINT Neck
        {
          OFFSET 0.000000 10.000000 0.000000
          CHANNELS 3 Zrotation Xrotation Yrotation
          JOINT Head
          {
            OFFSET 0.000000 8.000000 0.000000
            CHANNELS 3 Zrotation Xrotation Yrotation
            End Site
            {
              OFFSET 0.000000 10.000000 0.000000
            }
          }
        }
        JOINT LeftShoulder
        {
          OFFSET 6.000000 8.000000 0.000000
          CHANNELS 3 Zrotation Xrotation Yrotation
          JOINT LeftArm
          {
            OFFSET 12.000000 0.000000 0.000000
            CHANNELS 3 Zrotation Xrotation Yrotation
            JOINT LeftForeArm
            {
              OFFSET 24.000000 0.000000 0.000000
              CHANNELS 3 Zrotation Xrotation Yrotation
              JOINT LeftHand
              {
                OFFSET 22.000000 0.000000 0.000000
                CHANNELS 3 Zrotation Xrotation Yrotation
                JOINT LeftHandThumb1
                {
                  OFFSET 1.800000 -1.400000 0.500000
                  CHANNELS 3 Zrotation Xrotation Yrotation
                  JOINT LeftHandThumb2
                  {
                    OFFSET 2.400000 0.000000 0.000000
                    CHANNELS 3 Zrotation Xrotation Yrotation
                    JOINT LeftHandThumb3
                    {
                      OFFSET 1.900000 0.000000 0.000000
                      CHANNELS 3 Zrotation Xrotation Yrotation
                      End Site
                      {
                        OFFSET 1.600000 0.000000 0.000000
                      }
                    }
                  }
                }
                JOINT LeftHandIndex1
                {
                  OFFSET 6.600000 1.200000 0.300000
                  CHANNELS 3 Zrotation Xrotation Yrotation
                  JOINT LeftHandIndex2
                  {
                    OFFSET 2.000000 0.000000 0.000000
                    CHANNELS 3 Zrotation Xrotation Yrotation
                    JOINT LeftHandIndex3
                    {
                      OFFSET 1.200000 0.000000 0.000000
                      CHANNELS 3 Zrotation Xrotation Yrotation
                      End Site
                      {
                        OFFSET 1.000000 0.000000 0.000000
                      }
                    }
                  }
                }
                JOINT LeftHandMiddle1
                {
                  OFFSET 7.200000 0.000000 0.300000
                  CHANNELS 3 Zrotation Xrotation Yrotation
                  JOINT LeftHandMiddle2
                  {
                    OFFSET 3.000000 0.000000 0.000000
                    CHANNELS 3 Zrotation Xrotation Yrotation
                    JOINT LeftHandMiddle3
                    {
                      OFFSET 2.000000 0.000000 0.000000
                      CHANNELS 3 Zrotation Xrotation Yrotation
                      End Site
                      {
                        OFFSET 1.600000 0.000000 0.000000
                      }
                    }
                  }
                }
                JOINT LeftHandRing1
                {
                  OFFSET 7.100000 -1.000000 0.400000
                  CHANNELS 3 Zrotation Xrotation Yrotation
                  JOINT LeftHandRing2
                  {
                    OFFSET 2.600000 0.000000 0.000000
                    CHANNELS 3 Zrotation Xrotation Yrotation
                    JOINT LeftHandRing3
                    {
                      OFFSET 1.600000 0.000000 0.000000
                      CHANNELS 3 Zrotation Xrotation Yrotation
                      End Site
                      {
                        OFFSET 1.300000 0.000000 0.000000
                      }
                    }
                  }
                }
                JOINT LeftHandPinky1
                {
                  OFFSET 6.500000 -2.000000 0.500000
                  CHANNELS 3 Zrotation Xrotation Yrotation
                  JOINT LeftHandPinky2
                  {
                    OFFSET 1.900000 0.000000 0.000000
                    CHANNELS 3 Zrotation Xrotation Yrotation
                    JOINT LeftHandPinky3
                    {
                      OFFSET 1.400000 0.000000 0.000000
                      CHANNELS 3 Zrotation Xrotation Yrotation
                      End Site
                      {
                        OFFSET 1.300000 0.000000 0.000000
                      }
                    }
                  }
                }
              }
            }
          }
        }
        JOINT RightShoulder
        {
          OFFSET -6.000000 8.000000 0.000000
          CHANNELS 3 Zrotation Xrotation Yrotation
          JOINT RightArm
          {
            OFFSET -12.000000 0.000000 0.000000
            CHANNELS 3 Zrotation Xrotation Yrotation
            JOINT RightForeArm
            {
              OFFSET -24.000000 0.000000 0.000000
              CHANNELS 3 Zrotation Xrotation Yrotation
              JOINT RightHand
              {
                OFFSET -22.000000 0.000000 0.000000
                CHANNELS 3 Zrotation Xrotation Yrotation
                JOINT RightHandThumb1
                {
                  OFFSET -1.800000 -1.400000 0.500000
                  CHANNELS 3 Zrotation Xrotation Yrotation
                  JOINT RightHandThumb2
                  {
                    OFFSET -2.400000 0.000000 0.000000
                    CHANNELS 3 Zrotation Xrotation Yrotation
                    JOINT RightHandThumb3
                    {
                      OFFSET -1.900000 0.000000 0.000000
                      CHANNELS 3 Zrotation Xrotation Yrotation
                      End Site
                      {
                        OFFSET -1.600000 0.000000 0.000000
                      }
                    }
                  }
                }
                JOINT RightHandIndex1
                {
                  OFFSET -6.600000 1.200000 0.300000
                  CHANNELS 3 Zrotation Xrotation Yrotation
                  JOINT RightHandIndex2
                  {
                    OFFSET -2.000000 0.000000 0.000000
                    CHANNELS 3 Zrotation Xrotation Yrotation
                    JOINT RightHandIndex3
                    {
                      OFFSET -1.200000 0.000000 0.000000
                      CHANNELS 3 Zrotation Xrotation Yrotation
                      End Site
                      {
                        OFFSET -1.000000 0.000000 0.000000
                      }
                    }
                  }
                }
                JOINT RightHandMiddle1
                {
                  OFFSET -7.200000 0.000000 0.300000
                  CHANNELS 3 Zrotation Xrotation Yrotation
                  JOINT RightHandMiddle2
                  {
                    OFFSET -3.000000 0.000000 0.000000
                    CHANNELS 3 Zrotation Xrotation Yrotation
                    JOINT RightHandMiddle3
                    {
                      OFFSET -2.000000 0.000000 0.000000
                      CHANNELS 3 Zrotation Xrotation Yrotation
                      End Site
                      {
                        OFFSET -1.600000 0.000000 0.000000
                      }
                    }
                  }
                }
                JOINT RightHandRing1
                {
                  OFFSET -7.100000 -1.000000 0.400000
                  CHANNELS 3 Zrotation Xrotation Yrotation
                  JOINT RightHandRing2
                  {
                    OFFSET -2.600000 0.000000 0.000000
                    CHANNELS 3 Zrotation Xrotation Yrotation
                    JOINT RightHandRing3
                    {
                      OFFSET -1.600000 0.000000 0.000000
                      CHANNELS 3 Zrotation Xrotation Yrotation
                      End Site
                      {
                        OFFSET -1.300000 0.000000 0.000000
                      }
                    }
                  }
                }
                JOINT RightHandPinky1
                {
                  OFFSET -6.500000 -2.000000 0.500000
                  CHANNELS 3 Zrotation Xrotation Yrotation
                  JOINT RightHandPinky2
                  {
                    OFFSET -1.900000 0.000000 0.000000
                    CHANNELS 3 Zrotation Xrotation Yrotation
                    JOINT RightHandPinky3
                    {
                      OFFSET -1.400000 0.000000 0.000000
                      CHANNELS 3 Zrotation Xrotation Yrotation
                      End Site
                      {
                        OFFSET -1.300000 0.000000 0.000000
                      }
                    }
                  }
                }
              }
            }
          }
        }
      }
    }
  }
  JOINT LeftUpLeg
  {
    OFFSET 10.000000 -5.000000 0.000000
    CHANNELS 3 Zrotation Xrotation Yrotation
    JOINT LeftLeg
    {
      OFFSET 0.000000 -42.000000 0.000000
      CHANNELS 3 Zrotation Xrotation Yrotation
      JOINT LeftFoot
      {
        OFFSET 0.000000 -42.000000 4.000000
        CHANNELS 3 Zrotation Xrotation Yrotation
        End Site
        {
          OFFSET 0.000000 0.000000 12.000000
        }
      }
    }
  }
  JOINT RightUpLeg
  {
    OFFSET -10.000000 -5.000000 0.000000
    CHANNELS 3 Zrotation Xrotation Yrotation
    JOINT RightLeg
    {
      OFFSET 0.000000 -42.000000 0.000000
      CHANNELS 3 Zrotation Xrotation Yrotation
      JOINT RightFoot
      {
        OFFSET 0.000000 -42.000000 4.000000
        CHANNELS 3 Zrotation Xrotation Yrotation
        End Site
        {
          OFFSET 0.000000 0.000000 12.000000
        }
      }
    }
  }
}
MOTION
Frames: 6
Frame Time: 0.033333
0.0000 95.0000 0.0000 0.0000 0.0000 0.0000 0.0000 0.0000 0.0000 0.0000 0.0000 0.0000 0.0000 0.0000 0.0000 0.0000 0.0000 0.0000 0.0000 0.0000 0.0000 0.0000 0.0000 0.0000 -79.4299 5.0858 6.1208 -4.0221 9.9088 -12.4059 133.7163 3.7244 18.5056 53.0135 -9.7594 8.9782 39.1791 0.0000 0.0000 13.2826 0.0000 0.0000 -20.9267 0.9084 -7.1225 59.3230 0.0000 0.0000 38.6090 0.0000 0.0000 -25.9760 -8.3554 -39.9169 110.0000 0.0000 0.0000 10.4674 0.0000 0.0000 0.2632 -7.3371 -50.7551 110.0000 0.0000 0.0000 12.2565 0.0000 0.0000 28.0864 -4.5403 -46.5565 110.0000 0.0000 0.0000 15.9295 0.0000 0.0000 0.0000 0.0000 0.0000 50.4773 -16.3100 33.8181 -2.9588 59.5525 71.6244 326.2962 -54.0666 54.9335 -59.7214 -16.7605 36.4715 44.3460 0.0000 0.0000 60.4862 0.0000 0.0000 51.9182 10.2109 -27.3207 11.3996 0.0000 0.0000 11.1722 0.0000 0.0000 -7.4730 1.7758 31.4723 53.5300 0.0000 0.0000 65.9686 0.0000 0.0000 -27.3749 2.2135 36.6999 66.6342 0.0000 0.0000 82.8984 0.0000 0.0000 -40.6051 -0.4913 41.4458 49.0746 0.0000 0.0000 90.0000 0.0000 0.0000 0.0000 0.0000 0.0000 0.0000 0.0000 0.0000 0.0000 0.0000 0.0000 0.0000 0.0000 0.0000 0.0000 0.0000 0.0000 0.0000 0.0000 0.0000
0.0000 95.0000 0.0000 0.0000 0.0000 0.0000 0.0000 0.0000 0.0000 0.0000 0.0000 0.0000 0.0000 0.0000 0.0000 0.0000 0.0000 0.0000 0.0000 0.0000 0.0000 0.0000 0.0000 0.0000 -79.0455 5.0848 6.1615 -3.8980 9.8932 -12.4568 132.6074 2.2095 20.3835 50.0967 -9.0012 8.9138 42.8630 0.0000 0.0000 16.2890 0.0000 0.0000 -23.3865 0.8350 -8.2886 58.2148 0.0000 0.0000 34.7632 0.0000 0.0000 -27.1596 -7.2107 -34.0113 110.0000 0.0000 0.0000 9.6771 0.0000 0.0000 -2.6416 -7.2200 -43.6305 110.0000 0.0000 0.0000 12.2847 0.0000 0.0000 25.8049 -4.7036 -38.4897 110.0000 0.0000 0.0000 15.9430 0.0000 0.0000 0.0000 0.0000 0.0000 51.0464 -16.3304 33.4515 -1.3285 58.6040 72.5112 317.0828 -54.7599 51.0511 -51.9645 -17.3344 33.5745 46.1164 0.0000 0.0000 54.8855 0.0000 0.0000 52.6714 10.5589 -27.6898 10.5797 0.0000 0.0000 10.7384 0.0000 0.0000 -0.0701 0.0179 33.4820 51.5037 0.0000 0.0000 75.9352 0.0000 0.0000 -19.1755 0.0197 38.1090 73.1867 0.0000 0.0000 82.3720 0.0000 0.0000 -34.7209 -2.2604 41.1695 50.1135 0.0000 0.0000 90.0000 0.0000 0.0000 0.0000 0.0000 0.0000 0.0000 0.0000 0.0000 0.0000 0.0000 0.0000 0.0000 0.0000 0.0000 0.0000 0.0000 0.0000 0.0000 0.0000 0.0000
0.0000 95.0000 0.0000 0.0000 0.0000 0.0000 0.0000 0.0000 0.0000 0.0000 0.0000 0.0000 0.0000 0.0000 0.0000 0.0000 0.0000 0.0000 0.0000 0.0000 0.0000 0.0000 0.0000 0.0000 -78.7193 5.0512 6.1563 -3.9575 9.8209 -12.4439 131.6599 0.6757 22.3685 46.6105 -8.2101 8.3393 45.8661 0.0000 0.0000 18.7455 0.0000 0.0000 -25.7678 0.7036 -9.6926 56.6374 0.0000 0.0000 31.4238 0.0000 0.0000 -27.6438 -6.1797 -29.5219 110.0000 0.0000 0.0000 8.9214 0.0000 0.0000 -4.6601 -6.7768 -37.8864 110.0000 0.0000 0.0000 12.3597 0.0000 0.0000 23.8716 -4.6005 -31.7626 110.0000 0.0000 0.0000 15.9761 0.0000 0.0000 0.0000 0.0000 0.0000 51.7526 -16.3685 33.0302 -0.8979 58.6567 72.6580 331.4218 -54.5348 40.4894 -58.5501 -17.1475 38.2473 49.2244 0.0000 0.0000 50.4833 0.0000 0.0000 46.9306 7.9401 -24.3665 13.9107 0.0000 0.0000 10.8940 0.0000 0.0000 -8.2124 2.5000 38.5853 43.4696 0.0000 0.0000 62.1425 0.0000 0.0000 -24.6146 1.9676 42.8876 72.7240 0.0000 0.0000 83.3591 0.0000 0.0000 -42.7609 0.5834 46.4775 46.5959 0.0000 0.0000 90.0000 0.0000 0.0000 0.0000 0.0000 0.0000 0.0000 0.0000 0.0000 0.0000 0.0000 0.0000 0.0000 0.0000 0.0000 0.0000 0.0000 0.0000 0.0000 0.0000 0.0000
0.0000 95.0000 0.0000 0.0000 0.0000 0.0000 0.0000 0.0000 0.0000 0.0000 0.0000 0.0000 0.0000 0.0000 0.0000 0.0000 0.0000 0.0000 0.0000 0.0000 0.0000 0.0000 0.0000 0.0000 -78.7102 5.0585 6.1662 -3.4698 9.8384 -12.4132 130.4064 -0.7379 24.4596 42.4605 -7.4548 7.1157 47.7930 0.0000 0.0000 20.4071 0.0000 0.0000 -28.0146 0.5055 -11.3258 54.6959 0.0000 0.0000 28.5160 0.0000 0.0000 -27.6464 -5.3145 -26.1356 110.0000 0.0000 0.0000 8.2277 0.0000 0.0000 -5.9360 -6.2156 -33.3591 110.0000 0.0000 0.0000 12.4845 0.0000 0.0000 22.3421 -4.3421 -26.2550 110.0000 0.0000 0.0000 16.0310 0.0000 0.0000 0.0000 0.0000 0.0000 52.1100 -16.3480 32.7443 -0.2067 58.2166 72.9814 334.0572 -56.5774 45.2373 -60.3053 -17.0749 40.0686 47.2627 0.0000 0.0000 54.3945 0.0000 0.0000 38.5960 6.2769 -27.8819 14.1070 0.0000 0.0000 12.8897 0.0000 0.0000 -11.5587 3.4670 38.0678 55.2477 0.0000 0.0000 74.2002 0.0000 0.0000 -28.6075 3.3320 43.1639 75.2434 0.0000 0.0000 83.6991 0.0000 0.0000 -46.2700 1.9888 47.8909 47.8487 0.0000 0.0000 90.0000 0.0000 0.0000 0.0000 0.0000 0.0000 0.0000 0.0000 0.0000 0.0000 0.0000 0.0000 0.0000 0.0000 0.0000 0.0000 0.0000 0.0000 0.0000 0.0000 0.0000
0.0000 95.0000 0.0000 0.0000 0.0000 0.0000 0.0000 0.0000 0.0000 0.0000 0.0000 0.0000 0.0000 0.0000 0.0000 0.0000 0.0000 0.0000 0.0000 0.0000 0.0000 0.0000 0.0000 0.0000 -78.4168 5.0463 6.1835 -3.4905 9.8018 -12.4337 129.2644 -2.1876 26.6974 37.5709 -6.8539 5.1027 48.3002 0.0000 0.0000 21.2676 0.0000 0.0000 -30.0682 0.2381 -13.1726 52.4874 0.0000 0.0000 25.9715 0.0000 0.0000 -27.3097 -4.6098 -23.5864 110.0000 0.0000 0.0000 7.6313 0.0000 0.0000 -6.6233 -5.6456 -29.8172 110.0000 0.0000 0.0000 12.6617 0.0000 0.0000 21.1999 -4.0127 -21.7608 110.0000 0.0000 0.0000 16.1098 0.0000 0.0000 0.0000 0.0000 0.0000 52.5295 -16.4197 32.5953 -0.1968 58.5330 72.9231 313.5190 -39.2520 56.9450 -56.7393 -14.6775 18.4909 44.7841 0.0000 0.0000 54.6336 0.0000 0.0000 45.2222 9.0651 -31.1190 23.0180 0.0000 0.0000 15.3979 0.0000 0.0000 -4.8404 0.5796 18.4214 57.1807 0.0000 0.0000 90.0000 0.0000 0.0000 -20.3598 -0.4107 18.7944 97.8297 0.0000 0.0000 69.4762 0.0000 0.0000 -40.7689 -1.5697 23.1766 62.2768 0.0000 0.0000 90.0000 0.0000 0.0000 0.0000 0.0000 0.0000 0.0000 0.0000 0.0000 0.0000 0.0000 0.0000 0.0000 0.0000 0.0000 0.0000 0.0000 0.0000 0.0000 0.0000 0.0000
0.0000 95.0000 0.0000 0.0000 0.0000 0.0000 0.0000 0.0000 0.0000 0.0000 0.0000 0.0000 0.0000 0.0000 0.0000 0.0000 0.0000 0.0000 0.0000 0.0000 0.0000 0.0000 0.0000 0.0000 -78.3615 5.0575 6.2033 -3.2365 9.8116 -12.4295 127.9926 -3.5623 29.0670 31.9318 -6.5861 2.1994 47.1763 0.0000 0.0000 21.4783 0.0000 0.0000 -31.8701 -0.0941 -15.2117 50.0976 0.0000 0.0000 23.7320 0.0000 0.0000 -26.7217 -4.0400 -21.6653 110.0000 0.0000 0.0000 7.1746 0.0000 0.0000 -6.8495 -5.1135 -27.0388 110.0000 0.0000 0.0000 12.8935 0.0000 0.0000 20.3994 -3.6645 -18.0658 110.0000 0.0000 0.0000 16.2148 0.0000 0.0000 0.0000 0.0000 0.0000 52.6482 -16.6213 32.8980 -0.9019 59.0400 72.1270 335.3362 -70.5694 54.3450 -53.5693 -19.1804 45.6249 47.4877 0.0000 0.0000 46.1500 0.0000 0.0000 14.1523 -1.1291 -30.2609 14.4923 0.0000 0.0000 13.9604 0.0000 0.0000 -15.3808 6.1167 47.9460 60.0109 0.0000 0.0000 85.6018 0.0000 0.0000 -28.6638 4.6129 53.0748 80.5025 0.0000 0.0000 83.5633 0.0000 0.0000 -43.9602 2.2839 59.0454 56.2060 0.0000 0.0000 90.0000 0.0000 0.0000 0.0000 0.0000 0.0000 0.0000 0.0000 0.0000 0.0000 0.0000 0.0000 0.0000 0.0000 0.0000 0.0000 0.0000 0.0000 0.0000 0.0000 0.0000
